<?xml version="1.0" standalone="no"?>
<!DOCTYPE svg PUBLIC "-//W3C//DTD SVG 20010904//EN"
 "http://www.w3.org/TR/2001/REC-SVG-20010904/DTD/svg10.dtd">
<svg version="1.0" xmlns="http://www.w3.org/2000/svg"
 width="200.000000pt" height="200.000000pt" viewBox="0 0 200.000000 200.000000"
 preserveAspectRatio="xMidYMid meet">
<metadata>
Created by potrace 1.14, written by Peter Selinger 2001-2017
</metadata>
<g transform="translate(0.000000,200.000000) scale(0.100000,-0.100000)"
fill="#000000" stroke="none">
<path d="M985 1908 c-3 -7 -6 -85 -7 -173 l-3 -160 -47 -7 c-26 -5 -210 -78
-410 -163 -414 -177 -418 -180 -418 -271 0 -102 50 -163 141 -172 l49 -5 0
-113 0 -114 -100 0 c-165 0 -193 -24 -188 -161 3 -68 5 -74 25 -77 26 -4 32
12 35 108 3 52 6 65 20 68 16 3 18 -11 20 -150 3 -144 4 -153 23 -153 14 0 21
10 27 39 17 81 66 129 143 141 73 11 175 -65 175 -130 0 -31 24 -59 44 -52 14
5 16 24 16 127 0 108 2 120 18 120 31 0 62 29 61 58 0 15 -12 61 -28 102 -26
70 -29 75 -59 78 -28 3 -41 -5 -96 -57 -34 -34 -68 -61 -74 -61 -9 0 -12 37
-12 127 0 102 3 130 16 144 16 17 18 17 49 -6 59 -46 140 -45 196 2 19 16 33
22 37 16 15 -23 79 -53 115 -53 42 0 70 12 105 43 l22 20 23 -21 c12 -11 34
-25 50 -31 l27 -11 0 -114 0 -114 -114 -4 c-105 -3 -117 -5 -140 -27 -24 -23
-26 -30 -26 -118 0 -92 1 -94 23 -91 20 3 22 9 27 88 4 75 7 85 25 88 19 3 20
-3 20 -150 0 -144 1 -153 19 -153 14 0 23 14 37 55 55 170 270 166 314 -7 9
-36 17 -48 31 -48 17 0 19 10 22 123 3 120 3 122 26 122 28 0 56 29 56 57 0
23 -33 132 -50 163 -21 40 -78 19 -150 -54 -24 -25 -50 -46 -57 -46 -10 0 -13
28 -13 114 0 106 2 115 20 121 11 4 34 18 50 32 l30 25 30 -26 c55 -46 139
-47 195 -2 l29 24 33 -25 c57 -44 155 -40 198 7 17 19 19 19 37 4 16 -15 18
-34 18 -146 l0 -128 -95 0 c-104 0 -156 -15 -174 -48 -16 -30 -14 -189 2 -194
30 -12 37 4 37 81 0 47 5 82 12 89 29 29 33 11 30 -119 -2 -72 -1 -142 2 -155
9 -34 44 -32 52 4 21 94 51 131 124 153 81 24 182 -37 195 -119 10 -56 13 -62
33 -62 23 0 32 49 32 170 l0 78 29 5 c46 9 56 39 36 100 -39 124 -46 137 -74
137 -33 0 -69 -24 -119 -78 -21 -23 -44 -42 -50 -42 -9 0 -12 35 -12 115 l0
115 33 0 c41 0 95 28 120 61 38 53 41 169 4 206 -16 16 -685 306 -756 328 -25
7 -58 16 -73 19 -26 6 -28 10 -28 56 l0 50 159 0 c214 0 221 4 149 77 l-42 43
43 44 c71 73 64 76 -159 76 -143 0 -192 -3 -195 -12z m278 -60 c-36 -40 -37
-48 -8 -79 37 -37 27 -40 -111 -37 l-109 3 -3 68 -3 67 127 0 127 0 -20 -22z
m152 -467 c171 -74 315 -136 320 -140 6 -3 -19 -8 -55 -11 -57 -4 -65 -8 -65
-25 0 -19 8 -20 123 -23 l122 -3 0 -49 c0 -41 -5 -56 -29 -82 -24 -27 -36 -33
-71 -33 -34 0 -47 6 -67 29 -13 15 -27 41 -30 57 -3 16 -9 32 -13 34 -17 10
-40 -8 -40 -31 0 -13 -13 -38 -29 -56 -56 -63 -152 -33 -170 53 -10 48 -41 47
-54 -1 -18 -73 -78 -105 -141 -75 -22 10 -38 28 -46 48 -29 78 -47 82 -70 17
-19 -54 -69 -88 -114 -76 -37 9 -76 50 -76 79 0 34 -25 54 -45 37 -8 -7 -15
-23 -15 -37 0 -29 -39 -70 -76 -79 -45 -11 -95 22 -115 76 -24 65 -41 61 -69
-17 -14 -39 -69 -68 -108 -58 -39 9 -71 43 -78 82 -3 18 -10 35 -14 38 -17 10
-40 -8 -40 -31 0 -13 -13 -38 -29 -56 -24 -27 -36 -33 -70 -33 -62 0 -95 38
-96 107 l0 53 591 3 c529 2 593 4 598 18 3 9 4 20 0 25 -3 5 -230 9 -542 9
-295 0 -532 4 -526 8 9 9 589 259 634 273 14 5 63 7 110 5 84 -2 87 -4 395
-135z m-877 -650 c11 -33 18 -62 14 -65 -3 -3 -20 -6 -39 -6 l-33 0 0 -60 c0
-33 -1 -60 -2 -60 -2 0 -30 14 -62 30 -38 19 -73 30 -100 30 -47 -1 -109 -21
-135 -44 -27 -24 -31 -20 -31 33 0 81 0 81 107 81 113 0 147 13 198 76 20 24
42 44 50 44 7 0 22 -26 33 -59z m693 3 c25 -69 24 -72 -18 -76 l-38 -3 -3 -57
c-2 -32 -5 -58 -8 -58 -2 0 -22 11 -43 25 -69 46 -172 43 -243 -6 -14 -11 -29
-19 -32 -19 -10 0 -7 90 4 111 9 17 22 19 101 19 107 0 138 12 199 74 24 25
49 45 54 43 5 -2 18 -25 27 -53z m692 3 c23 -73 22 -75 -20 -79 l-38 -3 -5
-64 c-5 -59 -6 -63 -20 -46 -23 28 -91 55 -140 55 -45 0 -121 -28 -134 -49
-17 -27 -27 -7 -24 52 l3 62 112 5 113 5 57 58 c32 31 63 57 69 57 5 0 18 -24
27 -53z"/>
<path d="M1424 1215 c-10 -25 6 -35 56 -35 47 0 62 11 53 38 -7 18 -102 16
-109 -3z"/>
<path d="M985 458 c-3 -7 -6 -56 -7 -108 l-3 -95 -375 -2 c-257 -2 -382 -6
-397 -14 -29 -16 -45 -57 -41 -110 l3 -44 840 0 840 0 3 56 c2 43 -1 61 -17
80 l-19 24 -389 5 -388 5 -3 108 c-2 99 -4 107 -23 107 -11 0 -22 -6 -24 -12z
m803 -270 c7 -7 12 -22 12 -35 l0 -23 -795 0 c-862 0 -813 -3 -785 51 10 19
30 19 783 19 588 0 776 -3 785 -12z"/>
</g>
</svg>
