<?xml version="1.0" standalone="no"?>
<!DOCTYPE svg PUBLIC "-//W3C//DTD SVG 20010904//EN"
 "http://www.w3.org/TR/2001/REC-SVG-20010904/DTD/svg10.dtd">
<svg version="1.0" xmlns="http://www.w3.org/2000/svg"
 width="512.000000pt" height="512.000000pt" viewBox="0 0 512.000000 512.000000"
 preserveAspectRatio="xMidYMid meet">
<metadata>
Created by potrace 1.14, written by Peter Selinger 2001-2017
</metadata>
<g transform="translate(0.000000,512.000000) scale(0.100000,-0.100000)"
fill="#000000" stroke="none">
<path d="M1255 4881 c-194 -51 -345 -211 -385 -406 -10 -46 -13 -352 -12
-1285 0 -1120 1 -1231 17 -1290 48 -187 189 -329 380 -386 56 -17 156 -18
1700 -18 902 0 1665 3 1695 7 118 14 213 60 302 149 73 73 119 151 145 251 14
55 16 192 16 1292 0 979 -3 1241 -13 1285 -43 183 -160 317 -337 388 l-68 27
-1685 2 c-1609 2 -1688 1 -1755 -16z m3377 -420 c60 -32 58 4 58 -837 0 -732
-1 -767 -17 -748 -15 16 -145 167 -219 254 -12 14 -43 50 -69 80 -26 30 -57
66 -69 80 -12 14 -62 72 -111 130 -49 58 -99 116 -110 129 -130 157 -217 213
-341 219 -87 5 -160 -14 -228 -59 -35 -24 -162 -169 -459 -526 l-411 -493
-155 153 c-161 158 -206 189 -296 206 -95 18 -201 -5 -280 -60 -22 -15 -173
-161 -335 -323 -162 -163 -297 -296 -300 -296 -4 0 -6 459 -6 1019 1 1004 1
1019 21 1041 11 13 32 28 46 34 41 17 3248 15 3281 -3z"/>
<path d="M1810 4246 c-144 -42 -261 -160 -299 -302 -29 -108 -4 -260 58 -344
159 -220 450 -253 642 -73 170 159 180 430 21 598 -49 51 -84 75 -152 104 -67
29 -201 37 -270 17z"/>
<path d="M510 3328 c-7 -29 -16 -60 -21 -69 -4 -9 -10 -27 -13 -40 -3 -13 -26
-91 -51 -174 -25 -82 -62 -204 -81 -270 -20 -66 -44 -147 -54 -180 -10 -33
-32 -105 -48 -160 -86 -288 -113 -380 -145 -485 -85 -279 -88 -296 -86 -377 5
-175 109 -342 261 -419 26 -13 224 -71 440 -129 216 -57 418 -111 448 -120 30
-8 87 -23 125 -34 39 -10 140 -37 225 -60 85 -23 171 -46 190 -51 56 -16 593
-160 617 -165 12 -3 87 -23 165 -44 79 -21 229 -62 333 -89 105 -28 307 -82
450 -121 458 -123 449 -121 533 -116 90 5 117 12 197 51 105 52 223 198 241
301 3 15 7 30 9 34 6 9 175 549 175 558 0 4 -705 6 -1566 6 -1156 0 -1585 3
-1637 12 -190 32 -350 120 -480 265 -89 99 -174 286 -192 423 -3 22 -5 370 -5
773 0 416 -4 732 -9 732 -5 0 -15 -24 -21 -52z"/>
</g>
</svg>
